<?xml version="1.0" encoding="UTF-8" standalone="no"?>
<!-- Created with Inkscape (http://www.inkscape.org/) -->

<svg
   width="120"
   height="120"
   viewBox="0 0 120 120"
   version="1.1"
   id="svg1"
   xml:space="preserve"
   inkscape:version="1.3.2 (091e20e, 2023-11-25, custom)"
   sodipodi:docname="logo_black.svg"
   xmlns:inkscape="http://www.inkscape.org/namespaces/inkscape"
   xmlns:sodipodi="http://sodipodi.sourceforge.net/DTD/sodipodi-0.dtd"
   xmlns="http://www.w3.org/2000/svg"
   xmlns:svg="http://www.w3.org/2000/svg"><sodipodi:namedview
     id="namedview1"
     pagecolor="#505050"
     bordercolor="#eeeeee"
     borderopacity="1"
     inkscape:showpageshadow="0"
     inkscape:pageopacity="0"
     inkscape:pagecheckerboard="0"
     inkscape:deskcolor="#505050"
     inkscape:document-units="px"
     inkscape:zoom="4.5078057"
     inkscape:cx="59.785185"
     inkscape:cy="57.899567"
     inkscape:window-width="1920"
     inkscape:window-height="1017"
     inkscape:window-x="-8"
     inkscape:window-y="-8"
     inkscape:window-maximized="1"
     inkscape:current-layer="layer1" /><defs
     id="defs1" /><g
     inkscape:label="Camada 1"
     inkscape:groupmode="layer"
     id="layer1"><path
       style="fill:#0b1215;stroke-width:0.999999;fill-opacity:1"
       d="m 32.585936,96.541844 c -5.674925,-2.023052 -9.705444,-7.932703 -9.705444,-14.230374 0,-3.478992 0.94233,-5.656862 12.472775,-28.826451 C 48.81584,26.432943 50.09345,24.539626 55.977236,22.921967 c 2.259945,-0.621341 3.9419,-0.632354 6.803695,-0.04455 7.005216,1.43886 7.396878,1.9864 21.525947,30.092838 11.885768,23.64394 12.782318,25.692978 12.812078,29.281839 0.0767,9.2469 -7.85535,16.299595 -16.819897,14.955277 -4.432987,-0.664768 -6.48919,-1.890334 -9.841329,-5.865775 -3.367705,-3.993895 -6.365054,-5.629043 -10.318471,-5.629043 -4.284735,0 -6.306089,1.08103 -10.89296,5.825618 -5.638154,5.832016 -10.359298,7.249933 -16.660363,5.003671 z M 89.094386,92.2466 c 3.21166,-2.397846 4.60303,-4.878854 4.91866,-8.770646 0.29116,-3.590157 0.0109,-4.267993 -10.505763,-25.401757 L 72.702364,36.361021 71.934801,39.409294 c -0.422157,1.676547 -1.735234,4.150389 -2.917949,5.497425 -3.001491,3.418509 -5.927612,4.138494 -13.550376,3.334125 -7.274912,-0.767663 -11.898498,0.07979 -14.715654,2.697215 -1.591357,1.47853 -12.08415,21.616547 -12.09157,23.206428 -0.0017,0.346967 0.557487,0.123667 1.242459,-0.496224 8.818429,-7.980568 29.495556,-1.118023 41.091874,13.638012 1.917912,2.440497 4.547757,4.977404 5.844109,5.637577 3.161193,1.609849 9.675486,1.249901 12.256692,-0.677252 z"
       id="path1" /></g></svg>
