<svg width="21" height="21" viewBox="0 0 21 21" fill="none" xmlns="http://www.w3.org/2000/svg">
<path fill-rule="evenodd" clip-rule="evenodd" d="M11.5742 3.94995C11.5742 3.53574 11.2384 3.19995 10.8242 3.19995C10.41 3.19995 10.0742 3.53574 10.0742 3.94995V10.2H3.82422C3.41001 10.2 3.07422 10.5357 3.07422 10.95C3.07422 11.3642 3.41001 11.7 3.82422 11.7H10.0742V17.95C10.0742 18.3642 10.41 18.7 10.8242 18.7C11.2384 18.7 11.5742 18.3642 11.5742 17.95V11.7H17.8242C18.2384 11.7 18.5742 11.3642 18.5742 10.95C18.5742 10.5357 18.2384 10.2 17.8242 10.2H11.5742V3.94995Z" fill="#676879"/>
</svg>
