<svg width="20" height="20" viewBox="0 0 20 20" fill="none" xmlns="http://www.w3.org/2000/svg">
<path fill-rule="evenodd" clip-rule="evenodd" d="M11.0152 4.16669C11.0152 3.75247 10.6794 3.41669 10.2652 3.41669C9.85096 3.41669 9.51517 3.75247 9.51517 4.16669V5.57578L6.66669 5.57578C5.14791 5.57578 3.91669 6.807 3.91669 8.32578V8.48487H3.72729C2.7608 8.48487 1.97729 9.26837 1.97729 10.2349V12.1137C1.97729 13.0802 2.7608 13.8637 3.7273 13.8637H3.91669V14.0227C3.91669 15.5415 5.14791 16.7727 6.66669 16.7727H13.3334C14.8521 16.7727 16.0834 15.5415 16.0834 14.0227V13.8637H16.2727C17.2392 13.8637 18.0227 13.0802 18.0227 12.1137V10.2349C18.0227 9.26837 17.2392 8.48487 16.2727 8.48487H16.0834V8.32578C16.0834 6.80699 14.8521 5.57578 13.3334 5.57578L11.0152 5.57578V4.16669ZM14.5834 13.1137L14.5834 13.1149V14.0227C14.5834 14.7131 14.0237 15.2727 13.3334 15.2727H6.66669C5.97633 15.2727 5.41669 14.7131 5.41669 14.0227V13.1137V9.23487V8.32578C5.41669 7.63542 5.97633 7.07578 6.66669 7.07578H13.3334C14.0237 7.07578 14.5834 7.63542 14.5834 8.32578V9.23366L14.5834 9.23487V13.1137ZM16.2727 12.3637H16.0834V9.98487H16.2727C16.4108 9.98487 16.5227 10.0968 16.5227 10.2349V12.1137C16.5227 12.2517 16.4108 12.3637 16.2727 12.3637ZM3.91669 12.3637V9.98487H3.72729C3.58922 9.98487 3.47729 10.0968 3.47729 10.2349V12.1137C3.47729 12.2517 3.58922 12.3637 3.7273 12.3637H3.91669ZM9.07578 9.98487C9.07578 9.57066 8.73999 9.23487 8.32578 9.23487C7.91157 9.23487 7.57578 9.57066 7.57578 9.98487V11.394C7.57578 11.8082 7.91157 12.144 8.32578 12.144C8.73999 12.144 9.07578 11.8082 9.07578 11.394V9.98487ZM12.2046 9.23487C12.6188 9.23487 12.9546 9.57066 12.9546 9.98487V11.394C12.9546 11.8082 12.6188 12.144 12.2046 12.144C11.7904 12.144 11.4546 11.8082 11.4546 11.394V9.98487C11.4546 9.57066 11.7904 9.23487 12.2046 9.23487Z" fill="#676879"/>
</svg>
