<svg width="20" height="20" viewBox="0 0 20 20" fill="none" xmlns="http://www.w3.org/2000/svg">
<path fill-rule="evenodd" clip-rule="evenodd" d="M6.85921 2.77417C6.85921 2.35996 6.52343 2.02417 6.10921 2.02417C5.695 2.02417 5.35921 2.35996 5.35921 2.77417V4.99746V7.22083C5.35921 7.63504 5.695 7.97083 6.10921 7.97083C6.52343 7.97083 6.85921 7.63504 6.85921 7.22083V5.74746H11.6675C12.0817 5.74746 12.4175 5.41168 12.4175 4.99746C12.4175 4.58325 12.0817 4.24746 11.6675 4.24746H6.85921V2.77417ZM2.56944 4.79273C2.91857 4.4436 3.39209 4.24746 3.88583 4.24746C4.30005 4.24746 4.63583 4.58325 4.63583 4.99746C4.63583 5.41168 4.30005 5.74746 3.88583 5.74746C3.78991 5.74746 3.69792 5.78556 3.6301 5.85339C3.56227 5.92122 3.52417 6.01321 3.52417 6.10913V8.69411H16.4758V6.10913C16.4758 6.01321 16.4377 5.92122 16.3699 5.85339C16.302 5.78556 16.21 5.74746 16.1141 5.74746H14.6409V7.22083C14.6409 7.63504 14.3051 7.97083 13.8909 7.97083C13.4766 7.97083 13.1409 7.63504 13.1409 7.22083V5.00757L13.1408 4.99746L13.1409 4.98735V2.77417C13.1409 2.35996 13.4766 2.02417 13.8909 2.02417C14.3051 2.02417 14.6409 2.35996 14.6409 2.77417V4.24746H16.1141C16.6079 4.24746 17.0814 4.4436 17.4305 4.79273C17.7796 5.14186 17.9758 5.61538 17.9758 6.10913V9.44411V16.1141C17.9758 16.6079 17.7796 17.0814 17.4305 17.4305C17.0814 17.7796 16.6079 17.9758 16.1141 17.9758H3.88583C3.39209 17.9758 2.91857 17.7796 2.56944 17.4305C2.22031 17.0814 2.02417 16.6079 2.02417 16.1141V9.44411V6.10913C2.02417 5.61538 2.22031 5.14186 2.56944 4.79273ZM3.52417 16.1141V10.1941H16.4758V16.1141C16.4758 16.21 16.4377 16.302 16.3699 16.3699C16.302 16.4377 16.21 16.4758 16.1141 16.4758H3.88583C3.78991 16.4758 3.69792 16.4377 3.6301 16.3699C3.56227 16.302 3.52417 16.21 3.52417 16.1141Z" fill="#676879"/>
</svg>
