<svg width="20" height="20" viewBox="0 0 20 20" fill="none" xmlns="http://www.w3.org/2000/svg">
<path fill-rule="evenodd" clip-rule="evenodd" d="M2 4.7998C2 4.38559 2.33579 4.0498 2.75 4.0498H17.2553C17.6695 4.0498 18.0053 4.38559 18.0053 4.7998V8.70508V15.3998C18.0053 15.814 17.6695 16.1498 17.2553 16.1498H2.75C2.33579 16.1498 2 15.814 2 15.3998V8.70508V4.7998ZM16.5053 5.5498V7.95508H3.5V5.5498H16.5053ZM8.48467 9.45508H3.5V14.6498H16.5053V9.45508H10.0732C10.2177 9.59179 10.3079 9.78537 10.3079 10C10.3079 10.4142 9.97211 10.75 9.55789 10.75H9C8.58579 10.75 8.25 10.4142 8.25 10C8.25 9.78537 8.34016 9.59179 8.48467 9.45508Z" fill="#676879"/>
</svg>
