<svg width="20" height="20" viewBox="0 0 20 20" fill="none" xmlns="http://www.w3.org/2000/svg">
<path fill-rule="evenodd" clip-rule="evenodd" d="M7.82584 3.7273C7.82584 3.58922 7.93777 3.47729 8.07584 3.47729H9.76944H13.1567C13.2185 3.47729 13.2781 3.50016 13.324 3.54147L15.9401 5.89592C15.9927 5.94334 16.0228 6.01088 16.0228 6.08175V13.3637C16.0228 13.5017 15.9109 13.6137 15.7728 13.6137H8.07584C7.93777 13.6137 7.82584 13.5017 7.82584 13.3637V3.7273ZM8.07584 1.97729C7.10934 1.97729 6.32584 2.7608 6.32584 3.7273V4.88639H5.16675C4.20025 4.88639 3.41675 5.66989 3.41675 6.63639V16.2727C3.41675 17.2392 4.20025 18.0228 5.16675 18.0228H11.894C12.8605 18.0228 13.644 17.2392 13.644 16.2727V15.1137H15.7728C16.7393 15.1137 17.5228 14.3302 17.5228 13.3637V6.08175C17.5228 5.58565 17.3122 5.11286 16.9435 4.78098L14.3274 2.42653C14.0061 2.13732 13.5891 1.97729 13.1567 1.97729H9.76944H8.07584ZM12.144 15.1137H8.07584C7.10934 15.1137 6.32584 14.3302 6.32584 13.3637V6.38639H5.16675C5.02868 6.38639 4.91675 6.49831 4.91675 6.63639V16.2727C4.91675 16.4108 5.02868 16.5227 5.16675 16.5227H11.894C12.0321 16.5227 12.144 16.4108 12.144 16.2727V15.1137Z" fill="#676879"/>
</svg>
