<svg width="20" height="20" viewBox="0 0 20 20" fill="none" xmlns="http://www.w3.org/2000/svg">
<path fill-rule="evenodd" clip-rule="evenodd" d="M4.28654 4.28654C5.75058 2.82249 7.73626 2 9.80673 2C11.8772 2 13.8629 2.82249 15.3269 4.28654C16.791 5.75058 17.6135 7.73626 17.6135 9.80673C17.6135 11.8772 16.791 13.8629 15.3269 15.3269C13.8629 16.791 11.8772 17.6135 9.80673 17.6135C7.73626 17.6135 5.75058 16.791 4.28654 15.3269C2.82249 13.8629 2 11.8772 2 9.80673C2 7.73626 2.82249 5.75058 4.28654 4.28654ZM9.80673 3.41346C8.11113 3.41346 6.48498 4.08704 5.28601 5.28601C4.08704 6.48498 3.41346 8.11113 3.41346 9.80673C3.41346 11.5023 4.08704 13.1285 5.28601 14.3275C6.48498 15.5264 8.11113 16.2 9.80673 16.2C11.5023 16.2 13.1285 15.5264 14.3275 14.3275C15.5264 13.1285 16.2 11.5023 16.2 9.80673C16.2 8.11113 15.5264 6.48498 14.3275 5.28601C13.1285 4.08704 11.5023 3.41346 9.80673 3.41346Z" fill="#676879"/>
<path fill-rule="evenodd" clip-rule="evenodd" d="M5.96133 10.2208C6.33593 10.1112 6.72849 10.326 6.83813 10.7006C7.02587 11.342 7.41645 11.9053 7.95132 12.3061C8.48619 12.7069 9.13654 12.9235 9.80489 12.9235C10.4732 12.9235 11.1236 12.7069 11.6585 12.3061C12.1933 11.9053 12.5839 11.342 12.7716 10.7006C12.8813 10.326 13.2738 10.1112 13.6484 10.2208C14.023 10.3305 14.2378 10.723 14.1282 11.0976C13.8546 12.0324 13.2854 12.8533 12.506 13.4373C11.7266 14.0213 10.7788 14.3369 9.80489 14.3369C8.83093 14.3369 7.88321 14.0213 7.10378 13.4373C6.32434 12.8533 5.75517 12.0324 5.48158 11.0976C5.37194 10.723 5.58673 10.3305 5.96133 10.2208Z" fill="#676879"/>
<path d="M12.7067 7.70673C12.7067 8.25902 12.259 8.70673 11.7067 8.70673C11.1544 8.70673 10.7067 8.25902 10.7067 7.70673C10.7067 7.15445 11.1544 6.70673 11.7067 6.70673C12.259 6.70673 12.7067 7.15445 12.7067 7.70673Z" fill="#676879"/>
<path d="M8.70673 7.70673C8.70673 8.25902 8.25902 8.70673 7.70673 8.70673C7.15445 8.70673 6.70673 8.25902 6.70673 7.70673C6.70673 7.15445 7.15445 6.70673 7.70673 6.70673C8.25902 6.70673 8.70673 7.15445 8.70673 7.70673Z" fill="#676879"/>
</svg>
