<svg width="20" height="20" viewBox="0 0 20 20" fill="none" xmlns="http://www.w3.org/2000/svg">
<path fill-rule="evenodd" clip-rule="evenodd" d="M14.5284 7.39121C14.8224 7.09944 14.8242 6.62457 14.5324 6.33055L10.4054 2.17172C10.2645 2.02982 10.0729 1.95001 9.87299 1.95001C9.67309 1.95001 9.48145 2.02982 9.34064 2.17172L5.21357 6.33055C4.9218 6.62457 4.92362 7.09944 5.21764 7.3912C5.51165 7.68297 5.98652 7.68115 6.27829 7.38714L9.19594 4.44703L9.19594 12.4842C9.19594 12.8984 9.53172 13.2342 9.94594 13.2342C10.3602 13.2342 10.6959 12.8984 10.6959 12.4842V4.59404L13.4677 7.38714C13.7595 7.68115 14.2343 7.68297 14.5284 7.39121ZM3.55005 16.3426L3.55005 12.0191C3.55005 11.6049 3.21426 11.2691 2.80005 11.2691C2.38584 11.2691 2.05005 11.6049 2.05005 12.0191V16.3815C2.05005 16.3958 2.05046 16.4101 2.05128 16.4244C2.07775 16.8858 2.31242 17.2913 2.65882 17.5648C2.99778 17.8324 3.42522 17.9622 3.84881 17.9491L16.2515 17.9491C16.675 17.962 17.1022 17.8321 17.4411 17.5646C17.7873 17.2913 18.022 16.8861 18.0488 16.425C18.0496 16.4105 18.05 16.396 18.05 16.3815V12.0191C18.05 11.6049 17.7143 11.2691 17.3 11.2691C16.8858 11.2691 16.55 11.6049 16.55 12.0191V16.3422C16.5495 16.3437 16.5486 16.3456 16.5473 16.3479C16.5429 16.356 16.5328 16.3706 16.5116 16.3873C16.4668 16.4227 16.3888 16.4534 16.2937 16.4497C16.2839 16.4493 16.2741 16.4491 16.2643 16.4491L3.83576 16.4491C3.82581 16.4491 3.81585 16.4493 3.80591 16.4497C3.71097 16.4535 3.63305 16.4228 3.58827 16.3875C3.56719 16.3708 3.55708 16.3563 3.55272 16.3483C3.55147 16.346 3.55062 16.3441 3.55005 16.3426Z" fill="#676879"/>
</svg>
