<svg width="20" height="20" viewBox="0 0 20 20" fill="none" xmlns="http://www.w3.org/2000/svg">
<path fill-rule="evenodd" clip-rule="evenodd" d="M10.0001 3.90449L8.30073 7.34943C8.2018 7.5491 8.05595 7.72182 7.87566 7.85278C7.69537 7.98374 7.48602 8.06904 7.26555 8.10138L3.4628 8.65796L6.21017 11.3431C6.21004 11.343 6.2103 11.3432 6.21017 11.3431C6.37015 11.499 6.49011 11.6919 6.5589 11.9044C6.62762 12.1167 6.6436 12.3425 6.60547 12.5624C6.6054 12.5628 6.60533 12.5632 6.60526 12.5636L5.95611 16.3534L9.35952 14.563C9.55703 14.4592 9.77699 14.4048 10.0001 14.4048C10.2233 14.4048 10.443 14.4591 10.6405 14.5629L14.035 16.3477L13.3858 12.5579C13.3858 12.5574 13.3857 12.5569 13.3856 12.5565C13.3475 12.3367 13.3635 12.1109 13.4322 11.8987C13.501 11.6862 13.6206 11.4936 13.7805 11.3378C13.7804 11.3379 13.7807 11.3376 13.7805 11.3378L16.5324 8.65463L12.7354 8.10149C12.515 8.06915 12.3049 7.98374 12.1246 7.85278C11.9443 7.72182 11.7984 7.54911 11.6995 7.34943L10.0001 3.90449ZM10.5624 3.34904L11.2345 3.01626C11.1206 2.78619 10.9447 2.59254 10.7266 2.45714C10.5085 2.32175 10.2568 2.25 10.0001 2.25C9.7434 2.25 9.49179 2.32175 9.27367 2.45714C9.05555 2.59254 8.87961 2.78619 8.76571 3.01626L6.98478 6.6265L2.99551 7.21037L2.99221 7.21086C2.73869 7.24912 2.5009 7.35743 2.30565 7.52359C2.11039 7.68974 1.96542 7.90714 1.88709 8.15127C1.80876 8.39539 1.80018 8.65655 1.86232 8.90529C1.92434 9.15357 2.05435 9.37963 2.23774 9.55808C2.23808 9.55842 2.23843 9.55875 2.23877 9.55909L5.11633 12.3715L4.43627 16.3417C4.43617 16.3422 4.43607 16.3428 4.43596 16.3434C4.39171 16.5975 4.41973 16.8589 4.51686 17.0979C4.61422 17.3374 4.77706 17.5446 4.98675 17.6958C5.19643 17.8471 5.44446 17.9362 5.70245 17.953C5.95886 17.9697 6.21479 17.9142 6.44127 17.793L10.0001 15.9209L13.5499 17.7874C13.7764 17.9085 14.0323 17.964 14.2887 17.9473C14.5466 17.9305 14.7947 17.8414 15.0044 17.6901C15.214 17.5389 15.3769 17.3317 15.4742 17.0922C15.5714 16.8532 15.5994 16.5918 15.5551 16.3378C15.555 16.3372 15.5549 16.3365 15.5548 16.3359L14.8748 12.3658L17.7569 9.55566C17.7572 9.55536 17.7575 9.55505 17.7578 9.55475C17.9413 9.37628 18.0713 9.15018 18.1334 8.90186C18.1955 8.65312 18.1869 8.39196 18.1086 8.14784C18.0303 7.90371 17.8853 7.68632 17.69 7.52016C17.4948 7.354 17.257 7.24569 17.0035 7.20743L13.0154 6.62645L11.235 3.01724L10.5624 3.34904Z" fill="#676879"/>
</svg>
