<svg width="20" height="20" viewBox="0 0 20 20" fill="none" xmlns="http://www.w3.org/2000/svg">
<mask id="path-1-inside-1_11150_16645" fill="white">
<path fill-rule="evenodd" clip-rule="evenodd" d="M2.18727 17.8022C2.303 17.9285 2.46081 17.9916 2.62914 17.9916C2.72383 17.9916 2.81852 17.9705 2.90268 17.939L6.83745 16.0663C7.74224 16.5818 8.76276 16.8974 9.79379 16.9921C10.9511 17.0973 12.1189 16.9395 13.2025 16.5187C14.2756 16.0978 15.2646 15.4245 16.0431 14.5723C16.8217 13.7096 17.4003 12.6786 17.7159 11.5634C18.0316 10.4482 18.0842 9.25934 17.8738 8.12309C17.6633 6.98685 17.1794 5.90321 16.485 4.97738C15.7906 4.05155 14.8753 3.29406 13.8338 2.77854C12.8027 2.27354 11.6454 2 10.4987 2H10.4776C9.14151 2 7.82641 2.35771 6.67964 3.03104C5.52236 3.70437 4.57549 4.6828 3.9232 5.85061C3.27091 7.01841 2.94477 8.34403 2.98685 9.68017C3.00789 10.9006 3.34456 12.0894 3.93372 13.152L2.06102 17.0868C1.94529 17.3288 1.9979 17.6234 2.18727 17.8022ZM7.32141 4.11468C8.2788 3.55708 9.37296 3.26249 10.4776 3.26249H10.4987C11.4561 3.26249 12.4135 3.48343 13.2551 3.90426C14.1073 4.32509 14.8753 4.95634 15.454 5.72436C16.0326 6.49237 16.4324 7.39716 16.6113 8.34403C16.7901 9.2909 16.748 10.2799 16.485 11.2057C16.222 12.1315 15.7486 13.0047 15.0963 13.7096C14.444 14.425 13.6234 14.9826 12.7291 15.3298C11.8348 15.677 10.8564 15.8138 9.899 15.7191C8.94161 15.6244 8.00526 15.3088 7.18464 14.8038C7.00579 14.6881 6.77433 14.6775 6.58496 14.7722L3.95476 16.0242L5.20673 13.394C5.30142 13.1941 5.2909 12.9627 5.17517 12.7838C4.58601 11.8474 4.27038 10.7638 4.23882 9.64861C4.21778 8.5334 4.49132 7.43924 5.02788 6.46081C5.57496 5.48238 6.36402 4.67228 7.32141 4.11468ZM10.0358 13.2572C10.1515 13.3729 10.3199 13.4466 10.4882 13.4466C10.6565 13.4466 10.8249 13.3835 10.9406 13.2572L13.8548 10.2272C14.2125 9.86952 14.4335 9.42765 14.5176 8.93318C14.5913 8.4387 14.5176 7.94422 14.2967 7.49183C14.1284 7.15516 13.8864 6.86058 13.5813 6.63965C13.2762 6.41871 12.929 6.27142 12.5608 6.20829C12.1926 6.14517 11.8138 6.17673 11.4666 6.29246C11.1089 6.40819 10.7828 6.60808 10.5198 6.8711L10.4777 6.90267L10.4461 6.8711C10.1831 6.60808 9.85694 6.40819 9.49924 6.29246C9.15205 6.17673 8.76278 6.14517 8.40508 6.20829C8.03685 6.2609 7.67914 6.40819 7.38456 6.62913C7.07946 6.85006 6.83748 7.14464 6.66915 7.48131C6.44821 7.9337 6.36405 8.42818 6.44821 8.92265C6.52186 9.40661 6.75331 9.859 7.11102 10.2062L10.0358 13.2572ZM8.59445 7.44975C8.65758 7.43922 8.71018 7.43922 8.7733 7.43922C8.88903 7.43922 9.00476 7.44975 9.12049 7.49183C9.2783 7.54443 9.43611 7.63912 9.56236 7.75485L10.0358 8.2388C10.2883 8.48078 10.6881 8.48078 10.9301 8.2388L11.4035 7.76537C11.5297 7.63912 11.677 7.54443 11.8454 7.49183C12.0137 7.43922 12.1926 7.41818 12.3609 7.43922C12.5292 7.47079 12.6976 7.53391 12.8343 7.63912C12.9816 7.74433 13.0973 7.8811 13.171 8.03891C13.2762 8.24932 13.3183 8.48078 13.2762 8.71224C13.2446 8.9437 13.1394 9.14359 12.9606 9.32244L10.4882 11.9L8.00529 9.31192C7.83695 9.15411 7.73175 8.9437 7.68966 8.72276C7.6581 8.4913 7.68966 8.25985 7.79487 8.04943C7.86852 7.89162 7.97372 7.75485 8.12102 7.64964C8.26831 7.54443 8.42612 7.48131 8.59445 7.44975Z"/>
</mask>
<path fill-rule="evenodd" clip-rule="evenodd" d="M2.18727 17.8022C2.303 17.9285 2.46081 17.9916 2.62914 17.9916C2.72383 17.9916 2.81852 17.9705 2.90268 17.939L6.83745 16.0663C7.74224 16.5818 8.76276 16.8974 9.79379 16.9921C10.9511 17.0973 12.1189 16.9395 13.2025 16.5187C14.2756 16.0978 15.2646 15.4245 16.0431 14.5723C16.8217 13.7096 17.4003 12.6786 17.7159 11.5634C18.0316 10.4482 18.0842 9.25934 17.8738 8.12309C17.6633 6.98685 17.1794 5.90321 16.485 4.97738C15.7906 4.05155 14.8753 3.29406 13.8338 2.77854C12.8027 2.27354 11.6454 2 10.4987 2H10.4776C9.14151 2 7.82641 2.35771 6.67964 3.03104C5.52236 3.70437 4.57549 4.6828 3.9232 5.85061C3.27091 7.01841 2.94477 8.34403 2.98685 9.68017C3.00789 10.9006 3.34456 12.0894 3.93372 13.152L2.06102 17.0868C1.94529 17.3288 1.9979 17.6234 2.18727 17.8022ZM7.32141 4.11468C8.2788 3.55708 9.37296 3.26249 10.4776 3.26249H10.4987C11.4561 3.26249 12.4135 3.48343 13.2551 3.90426C14.1073 4.32509 14.8753 4.95634 15.454 5.72436C16.0326 6.49237 16.4324 7.39716 16.6113 8.34403C16.7901 9.2909 16.748 10.2799 16.485 11.2057C16.222 12.1315 15.7486 13.0047 15.0963 13.7096C14.444 14.425 13.6234 14.9826 12.7291 15.3298C11.8348 15.677 10.8564 15.8138 9.899 15.7191C8.94161 15.6244 8.00526 15.3088 7.18464 14.8038C7.00579 14.6881 6.77433 14.6775 6.58496 14.7722L3.95476 16.0242L5.20673 13.394C5.30142 13.1941 5.2909 12.9627 5.17517 12.7838C4.58601 11.8474 4.27038 10.7638 4.23882 9.64861C4.21778 8.5334 4.49132 7.43924 5.02788 6.46081C5.57496 5.48238 6.36402 4.67228 7.32141 4.11468ZM10.0358 13.2572C10.1515 13.3729 10.3199 13.4466 10.4882 13.4466C10.6565 13.4466 10.8249 13.3835 10.9406 13.2572L13.8548 10.2272C14.2125 9.86952 14.4335 9.42765 14.5176 8.93318C14.5913 8.4387 14.5176 7.94422 14.2967 7.49183C14.1284 7.15516 13.8864 6.86058 13.5813 6.63965C13.2762 6.41871 12.929 6.27142 12.5608 6.20829C12.1926 6.14517 11.8138 6.17673 11.4666 6.29246C11.1089 6.40819 10.7828 6.60808 10.5198 6.8711L10.4777 6.90267L10.4461 6.8711C10.1831 6.60808 9.85694 6.40819 9.49924 6.29246C9.15205 6.17673 8.76278 6.14517 8.40508 6.20829C8.03685 6.2609 7.67914 6.40819 7.38456 6.62913C7.07946 6.85006 6.83748 7.14464 6.66915 7.48131C6.44821 7.9337 6.36405 8.42818 6.44821 8.92265C6.52186 9.40661 6.75331 9.859 7.11102 10.2062L10.0358 13.2572ZM8.59445 7.44975C8.65758 7.43922 8.71018 7.43922 8.7733 7.43922C8.88903 7.43922 9.00476 7.44975 9.12049 7.49183C9.2783 7.54443 9.43611 7.63912 9.56236 7.75485L10.0358 8.2388C10.2883 8.48078 10.6881 8.48078 10.9301 8.2388L11.4035 7.76537C11.5297 7.63912 11.677 7.54443 11.8454 7.49183C12.0137 7.43922 12.1926 7.41818 12.3609 7.43922C12.5292 7.47079 12.6976 7.53391 12.8343 7.63912C12.9816 7.74433 13.0973 7.8811 13.171 8.03891C13.2762 8.24932 13.3183 8.48078 13.2762 8.71224C13.2446 8.9437 13.1394 9.14359 12.9606 9.32244L10.4882 11.9L8.00529 9.31192C7.83695 9.15411 7.73175 8.9437 7.68966 8.72276C7.6581 8.4913 7.68966 8.25985 7.79487 8.04943C7.86852 7.89162 7.97372 7.75485 8.12102 7.64964C8.26831 7.54443 8.42612 7.48131 8.59445 7.44975Z" fill="#676879"/>
<path d="M2.18727 17.8022L2.92442 17.1265L2.90008 17.0999L2.87389 17.0752L2.18727 17.8022ZM2.90268 17.939L3.25381 18.8753L3.29383 18.8603L3.33243 18.8419L2.90268 17.939ZM6.83745 16.0663L7.3325 15.1974L6.879 14.939L6.40771 15.1633L6.83745 16.0663ZM9.79379 16.9921L9.70234 17.9879L9.70326 17.988L9.79379 16.9921ZM13.2025 16.5187L13.5645 17.4509L13.5676 17.4496L13.2025 16.5187ZM16.0431 14.5723L16.7814 15.2468L16.7855 15.2423L16.0431 14.5723ZM13.8338 2.77854L14.2774 1.8823L14.2736 1.88047L13.8338 2.77854ZM6.67964 3.03104L7.18254 3.89539L7.18597 3.89338L6.67964 3.03104ZM2.98685 9.68017L3.9867 9.66293L3.98658 9.65581L3.98635 9.64869L2.98685 9.68017ZM3.93372 13.152L4.83667 13.5818L5.0578 13.1171L4.80828 12.6671L3.93372 13.152ZM2.06102 17.0868L2.96316 17.5183L2.96397 17.5165L2.06102 17.0868ZM13.2551 3.90426L12.8079 4.7987L12.8123 4.80089L13.2551 3.90426ZM15.0963 13.7096L14.3623 13.0304L14.3573 13.0359L15.0963 13.7096ZM7.18464 14.8038L6.64139 15.6434L6.6509 15.6495L6.66054 15.6554L7.18464 14.8038ZM6.58496 14.7722L7.01475 15.6752L7.0235 15.671L7.03217 15.6667L6.58496 14.7722ZM3.95476 16.0242L3.05183 15.5944L1.84119 18.1378L4.38455 16.9271L3.95476 16.0242ZM5.20673 13.394L6.10966 13.8238L6.11047 13.8221L5.20673 13.394ZM5.17517 12.7838L4.32871 13.3164L4.3356 13.3271L5.17517 12.7838ZM4.23882 9.64861L3.23896 9.66747L3.23922 9.6769L4.23882 9.64861ZM5.02788 6.46081L4.15503 5.97276L4.15107 5.97998L5.02788 6.46081ZM10.0358 13.2572L9.31391 13.9492L9.32122 13.9569L9.32869 13.9643L10.0358 13.2572ZM10.9406 13.2572L10.2198 12.564L10.2115 12.5726L10.2034 12.5815L10.9406 13.2572ZM13.8548 10.2272L13.1477 9.52012L13.1409 9.52701L13.1341 9.53402L13.8548 10.2272ZM14.5176 8.93318L15.5035 9.10098L15.5052 9.09075L15.5067 9.08049L14.5176 8.93318ZM14.2967 7.49183L15.1953 7.05297L15.1911 7.04462L14.2967 7.49183ZM12.5608 6.20829L12.7297 5.22267V5.22267L12.5608 6.20829ZM11.4666 6.29246L11.7745 7.24394L11.7829 7.24114L11.4666 6.29246ZM10.5198 6.8711L11.1197 7.67111L11.1766 7.62847L11.2269 7.57821L10.5198 6.8711ZM10.4777 6.90267L9.77057 7.60978L10.3838 8.22303L11.0777 7.70267L10.4777 6.90267ZM10.4461 6.8711L9.739 7.57821L9.73901 7.57822L10.4461 6.8711ZM9.49924 6.29246L9.183 7.24118L9.19142 7.2439L9.49924 6.29246ZM8.40508 6.20829L8.5465 7.19824L8.56272 7.19593L8.57886 7.19308L8.40508 6.20829ZM7.38456 6.62913L7.97107 7.43907L7.97786 7.43415L7.98456 7.42913L7.38456 6.62913ZM6.66915 7.48131L5.77468 7.03408L5.77058 7.04247L6.66915 7.48131ZM6.44821 8.92265L7.43683 8.77221L7.43551 8.76352L7.43403 8.75486L6.44821 8.92265ZM7.11102 10.2062L7.83291 9.51418L7.82043 9.50116L7.8075 9.48861L7.11102 10.2062ZM8.59445 7.44975L8.43005 6.46335L8.42009 6.46501L8.41016 6.46687L8.59445 7.44975ZM9.12049 7.49183L8.77874 8.43162L8.79144 8.43624L8.80426 8.44051L9.12049 7.49183ZM9.56236 7.75485L10.2772 7.05555L10.2582 7.03609L10.2381 7.01769L9.56236 7.75485ZM10.0358 8.2388L9.32096 8.9381L9.33224 8.94963L9.34389 8.96079L10.0358 8.2388ZM10.9301 8.2388L11.6372 8.94591H11.6372L10.9301 8.2388ZM11.4035 7.76537L10.6964 7.05826H10.6964L11.4035 7.76537ZM11.8454 7.49183L11.5471 6.53735L11.5471 6.53735L11.8454 7.49183ZM12.3609 7.43922L12.5452 6.45635L12.5152 6.45073L12.4849 6.44695L12.3609 7.43922ZM12.8343 7.63912L12.2246 8.43175L12.2387 8.44255L12.2531 8.45285L12.8343 7.63912ZM13.171 8.03891L12.2648 8.4618L12.2705 8.47404L12.2766 8.48612L13.171 8.03891ZM13.2762 8.71224L12.2923 8.53335L12.2884 8.55516L12.2854 8.57712L13.2762 8.71224ZM12.9606 9.32244L12.2535 8.61534L12.2461 8.6227L12.2389 8.63022L12.9606 9.32244ZM10.4882 11.9L9.76657 12.5923L10.4883 13.3446L11.2099 12.5923L10.4882 11.9ZM8.00529 9.31192L8.72691 8.61964L8.70856 8.60051L8.68923 8.58239L8.00529 9.31192ZM7.68966 8.72276L6.69883 8.85787L6.70239 8.88398L6.70732 8.90987L7.68966 8.72276ZM7.79487 8.04943L8.6893 8.49664L8.69534 8.48456L8.70105 8.47232L7.79487 8.04943ZM8.12102 7.64964L7.53978 6.83591L7.53978 6.83591L8.12102 7.64964ZM2.62914 16.9916C2.71753 16.9916 2.83537 17.0293 2.92442 17.1265L1.45012 18.4779C1.77063 18.8276 2.20409 18.9916 2.62914 18.9916V16.9916ZM2.55156 17.0027C2.55585 17.001 2.56294 16.9987 2.57374 16.9965C2.58442 16.9944 2.60307 16.9916 2.62914 16.9916V18.9916C2.86694 18.9916 3.08135 18.94 3.25381 18.8753L2.55156 17.0027ZM6.40771 15.1633L2.47294 17.036L3.33243 18.8419L7.2672 16.9692L6.40771 15.1633ZM9.88525 15.9963C8.99332 15.9144 8.11081 15.6409 7.3325 15.1974L6.3424 16.9351C7.37367 17.5227 8.5322 17.8805 9.70234 17.9879L9.88525 15.9963ZM12.8405 15.5865C11.9044 15.9501 10.8917 16.0878 9.88433 15.9962L9.70326 17.988C11.0104 18.1068 12.3334 17.929 13.5645 17.4508L12.8405 15.5865ZM15.3048 13.8978C14.6315 14.6349 13.771 15.2216 12.8374 15.5877L13.5676 17.4496C14.7803 16.9741 15.8977 16.2141 16.7814 15.2468L15.3048 13.8978ZM16.7537 11.2911C16.4812 12.2541 15.9796 13.1501 15.3007 13.9024L16.7855 15.2423C17.6637 14.2692 18.3195 13.1031 18.6781 11.8357L16.7537 11.2911ZM16.8905 8.30518C17.0731 9.2916 17.0272 10.3249 16.7537 11.2911L18.6781 11.8357C19.036 10.5715 19.0952 9.22708 18.857 7.941L16.8905 8.30518ZM15.685 5.57738C16.2898 6.38379 16.709 7.32523 16.8905 8.30518L18.857 7.941C18.6177 6.64847 18.0689 5.42263 17.285 4.37738L15.685 5.57738ZM13.3902 3.67477C14.293 4.12162 15.0857 4.77829 15.685 5.57738L17.285 4.37738C16.4956 3.32481 15.4576 2.46649 14.2774 1.88231L13.3902 3.67477ZM10.4987 3C11.4898 3 12.4969 3.23727 13.3939 3.6766L14.2736 1.88047C13.1085 1.30981 11.8011 1 10.4987 1V3ZM10.4776 3H10.4987V1H10.4776V3ZM7.18597 3.89338C8.17892 3.31036 9.31917 3 10.4776 3V1C8.96384 1 7.4739 1.40505 6.17331 2.1687L7.18597 3.89338ZM4.79624 6.33825C5.36374 5.32224 6.18472 4.47593 7.18254 3.89538L6.17675 2.16669C4.85999 2.9328 3.78723 4.04336 3.05016 5.36296L4.79624 6.33825ZM3.98635 9.64869C3.95003 8.49554 4.23159 7.34916 4.79624 6.33825L3.05016 5.36296C2.31023 6.68766 1.9395 8.19252 1.98735 9.71165L3.98635 9.64869ZM4.80828 12.6671C4.29384 11.7393 4.00476 10.7101 3.9867 9.66293L1.987 9.69741C2.01103 11.0911 2.39527 12.4396 3.05915 13.6369L4.80828 12.6671ZM2.96397 17.5165L4.83667 13.5818L3.03077 12.7223L1.15807 16.6571L2.96397 17.5165ZM2.87389 17.0752C3.01073 17.2044 3.02869 17.3812 2.96315 17.5183L1.15889 16.6553C0.861898 17.2763 0.985062 18.0423 1.50065 18.5292L2.87389 17.0752ZM10.4776 2.26249C9.19637 2.26249 7.92852 2.60384 6.81813 3.25055L7.82469 4.9788C8.62908 4.51031 9.54955 4.26249 10.4776 4.26249V2.26249ZM10.4987 2.26249H10.4776V4.26249H10.4987V2.26249ZM13.7023 3.00983C12.7175 2.5174 11.6064 2.26249 10.4987 2.26249V4.26249C11.3058 4.26249 12.1095 4.44946 12.8079 4.79869L13.7023 3.00983ZM16.2527 5.12261C15.5789 4.22836 14.6884 3.49678 13.6979 3.00763L12.8123 4.80089C13.5262 5.1534 14.1717 5.68431 14.6553 6.3261L16.2527 5.12261ZM17.5939 8.15842C17.3866 7.06079 16.9239 6.01356 16.2527 5.12261L14.6553 6.3261C15.1413 6.97118 15.4783 7.73353 15.6286 8.52964L17.5939 8.15842ZM17.4469 11.479C17.7529 10.4021 17.8012 9.25594 17.5939 8.15842L15.6286 8.52964C15.779 9.32586 15.7432 10.1577 15.5231 10.9324L17.4469 11.479ZM15.8302 14.3888C16.5965 13.5607 17.1439 12.5457 17.4469 11.479L15.5231 10.9324C15.3001 11.7173 14.9006 12.4488 14.3623 13.0304L15.8302 14.3888ZM13.091 16.262C14.1272 15.8598 15.0774 15.2145 15.8352 14.3834L14.3573 13.0359C13.8105 13.6356 13.1195 14.1055 12.3672 14.3976L13.091 16.262ZM9.80058 16.7142C10.9161 16.8246 12.0521 16.6654 13.091 16.262L12.3672 14.3976C11.6175 14.6887 10.7967 14.803 9.99742 14.724L9.80058 16.7142ZM6.66054 15.6554C7.61024 16.2399 8.69213 16.6046 9.80058 16.7142L9.99742 14.724C9.19109 14.6442 8.40028 14.3777 7.70874 13.9521L6.66054 15.6554ZM7.03217 15.6667C6.91148 15.727 6.7658 15.7239 6.64139 15.6434L7.72789 13.9642C7.24578 13.6523 6.63718 13.6281 6.13774 13.8778L7.03217 15.6667ZM4.38455 16.9271L7.01475 15.6752L6.15516 13.8693L3.52497 15.1213L4.38455 16.9271ZM4.30381 12.9642L3.05183 15.5944L4.85769 16.454L6.10966 13.8238L4.30381 12.9642ZM4.3356 13.3271C4.25007 13.1949 4.26001 13.0567 4.303 12.9659L6.11047 13.8221C6.34283 13.3316 6.33173 12.7304 6.01474 12.2405L4.3356 13.3271ZM3.23922 9.6769C3.27559 10.9618 3.63966 12.2212 4.32878 13.3164L6.02156 12.2512C5.53235 11.4737 5.26518 10.5658 5.23842 9.62032L3.23922 9.6769ZM4.15107 5.97998C3.53186 7.10912 3.21462 8.37525 3.239 9.66747L5.23864 9.62974C5.22094 8.69156 5.45078 7.76937 5.90469 6.94164L4.15107 5.97998ZM6.81813 3.25055C5.70254 3.90029 4.7874 4.84185 4.15505 5.97278L5.90071 6.94884C6.36252 6.12291 7.0255 5.44426 7.82469 4.9788L6.81813 3.25055ZM10.4882 12.4466C10.5484 12.4466 10.5964 12.4593 10.6324 12.4745C10.6682 12.4897 10.706 12.5132 10.7429 12.5501L9.32869 13.9643C9.62361 14.2592 10.0431 14.4466 10.4882 14.4466V12.4466ZM10.2034 12.5815C10.3039 12.4719 10.4184 12.4466 10.4882 12.4466V14.4466C10.8946 14.4466 11.3458 14.295 11.6777 13.9329L10.2034 12.5815ZM13.1341 9.53402L10.2198 12.564L11.6613 13.9504L14.5756 10.9204L13.1341 9.53402ZM13.5318 8.76538C13.481 9.06405 13.3529 9.31494 13.1477 9.52012L14.5619 10.9343C15.0722 10.4241 15.386 9.79126 15.5035 9.10098L13.5318 8.76538ZM13.3981 7.93066C13.529 8.19856 13.5729 8.48836 13.5286 8.78586L15.5067 9.08049C15.6097 8.38903 15.5063 7.68988 15.1953 7.05299L13.3981 7.93066ZM12.9948 7.44959C13.1606 7.56965 13.3008 7.73605 13.4023 7.93904L15.1911 7.04462C14.956 6.57428 14.6122 6.15152 14.1678 5.8297L12.9948 7.44959ZM12.3918 7.19392C12.6066 7.23074 12.8114 7.31678 12.9948 7.44959L14.1678 5.8297C13.741 5.52063 13.2514 5.3121 12.7297 5.22267L12.3918 7.19392ZM11.7829 7.24114C11.977 7.17643 12.1892 7.15918 12.3918 7.19392L12.7297 5.22267C12.1959 5.13116 11.6506 5.17703 11.1504 5.34378L11.7829 7.24114ZM11.2269 7.57821C11.3777 7.42734 11.5669 7.31104 11.7744 7.2439L11.1588 5.34102C10.6509 5.50534 10.1878 5.78883 9.81265 6.164L11.2269 7.57821ZM11.0777 7.70267L11.1197 7.67111L9.91976 6.0711L9.87768 6.10266L11.0777 7.70267ZM9.73901 7.57822L9.77057 7.60978L11.1848 6.19555L11.1532 6.16399L9.73901 7.57822ZM9.19142 7.2439C9.39892 7.31104 9.58813 7.42734 9.739 7.57821L11.1532 6.164C10.778 5.78883 10.315 5.50534 9.80706 5.34102L9.19142 7.2439ZM8.57886 7.19308C8.76697 7.15988 8.98794 7.17612 9.18301 7.24114L9.81546 5.34378C9.31617 5.17734 8.75859 5.13046 8.23129 5.22351L8.57886 7.19308ZM7.98456 7.42913C8.1428 7.31044 8.34233 7.22741 8.5465 7.19824L8.26366 5.21834C7.73137 5.29438 7.21548 5.50593 6.78456 5.82912L7.98456 7.42913ZM7.56358 7.92852C7.66507 7.72553 7.80527 7.55913 7.97107 7.43907L6.79805 5.81918C6.35364 6.14099 6.00989 6.56376 5.77472 7.03409L7.56358 7.92852ZM7.43403 8.75486C7.38809 8.48495 7.43019 8.20175 7.56772 7.92014L5.77058 7.04247C5.46624 7.66565 5.34 8.37141 5.46239 9.09045L7.43403 8.75486ZM7.8075 9.48861C7.60645 9.29348 7.47762 9.04026 7.43683 8.77221L5.45959 9.0731C5.56609 9.77296 5.90018 10.4245 6.41455 10.9238L7.8075 9.48861ZM10.7577 12.5652L7.83291 9.51418L6.38914 10.8982L9.31391 13.9492L10.7577 12.5652ZM8.7733 6.43922C8.71595 6.43922 8.58552 6.43744 8.43005 6.46335L8.75885 8.43614C8.75214 8.43726 8.74558 8.43811 8.73966 8.4387C8.73385 8.43928 8.73006 8.43947 8.72929 8.43951C8.72885 8.43953 8.73124 8.43941 8.73871 8.43933C8.74242 8.43929 8.74692 8.43926 8.75279 8.43924C8.75881 8.43923 8.76516 8.43922 8.7733 8.43922V6.43922ZM9.46223 6.55204C9.19299 6.45413 8.94719 6.43922 8.7733 6.43922V8.43922C8.78726 8.43922 8.7969 8.43955 8.80337 8.43992C8.80976 8.44028 8.81228 8.44064 8.81178 8.44058C8.8112 8.4405 8.80756 8.43997 8.80157 8.43854C8.7955 8.43709 8.7877 8.43488 8.77874 8.43162L9.46223 6.55204ZM10.2381 7.01769C10.0143 6.81256 9.73553 6.64275 9.43672 6.54314L8.80426 8.44051C8.82107 8.44612 8.85792 8.46568 8.88664 8.492L10.2381 7.01769ZM10.7506 7.53951L10.2772 7.05555L8.84753 8.45414L9.32096 8.9381L10.7506 7.53951ZM10.223 7.5317C10.3796 7.37505 10.6018 7.39621 10.7277 7.51682L9.34389 8.96079C9.97474 9.56536 10.9966 9.58651 11.6372 8.94591L10.223 7.5317ZM10.6964 7.05826L10.223 7.5317L11.6372 8.94591L12.1106 8.47248L10.6964 7.05826ZM11.5471 6.53735C11.2061 6.64391 10.9225 6.83218 10.6964 7.05826L12.1106 8.47248C12.1246 8.45851 12.1342 8.45176 12.1387 8.44898C12.1409 8.44756 12.1423 8.44688 12.1428 8.44663C12.1434 8.4464 12.1436 8.44633 12.1436 8.44631L11.5471 6.53735ZM12.4849 6.44695C12.1534 6.4055 11.8297 6.44903 11.5471 6.53735L12.1436 8.44631C12.1977 8.42942 12.2317 8.43086 12.2369 8.4315L12.4849 6.44695ZM13.444 6.84649C13.1504 6.62061 12.823 6.50844 12.5452 6.45635L12.1766 8.4221C12.2025 8.42695 12.2204 8.43282 12.2302 8.43686C12.24 8.44089 12.2364 8.44081 12.2246 8.43175L13.444 6.84649ZM14.0772 7.61602C13.9267 7.2936 13.6952 7.02511 13.4156 6.82539L12.2531 8.45285C12.2607 8.45831 12.2645 8.46239 12.2658 8.46388C12.267 8.46531 12.2662 8.4647 12.2648 8.4618L14.0772 7.61602ZM14.2601 8.89112C14.3456 8.42064 14.2548 7.97044 14.0654 7.5917L12.2766 8.48612C12.2875 8.50797 12.2908 8.52227 12.2918 8.52836C12.2923 8.53142 12.2923 8.53297 12.2923 8.53326C12.2923 8.53345 12.2923 8.53349 12.2923 8.53342C12.2923 8.53334 12.2923 8.53331 12.2923 8.53335L14.2601 8.89112ZM13.6677 10.0296C13.982 9.71522 14.2025 9.32063 14.267 8.84735L12.2854 8.57712C12.285 8.58005 12.2847 8.58024 12.2852 8.57867C12.2857 8.57708 12.2863 8.576 12.2862 8.57608C12.2861 8.57625 12.2845 8.57937 12.2799 8.58552C12.2752 8.5918 12.267 8.60183 12.2535 8.61534L13.6677 10.0296ZM11.2099 12.5923L13.6823 10.0147L12.2389 8.63022L9.76651 11.2078L11.2099 12.5923ZM7.28366 10.0042L9.76657 12.5923L11.2098 11.2077L8.72691 8.61964L7.28366 10.0042ZM6.70732 8.90987C6.78401 9.31249 6.98033 9.72176 7.32135 10.0415L8.68923 8.58239C8.69136 8.58439 8.68916 8.58308 8.68505 8.57527C8.68071 8.56703 8.67543 8.55366 8.672 8.53565L6.70732 8.90987ZM6.90044 7.60222C6.69668 8.00974 6.64279 8.44687 6.69883 8.85787L8.68049 8.58765C8.67678 8.56044 8.67777 8.54073 8.67975 8.52767C8.68164 8.51513 8.68489 8.50546 8.6893 8.49664L6.90044 7.60222ZM7.53978 6.83591C7.23443 7.05401 7.02528 7.33384 6.88869 7.62654L8.70105 8.47232C8.70741 8.45869 8.71098 8.45478 8.7097 8.45637C8.70916 8.45704 8.70801 8.45836 8.70633 8.45996C8.70464 8.46156 8.70315 8.46273 8.70225 8.46337L7.53978 6.83591ZM8.41016 6.46687C8.10972 6.52321 7.81424 6.63986 7.53978 6.83591L8.70225 8.46337C8.71462 8.45454 8.72493 8.44912 8.73446 8.44515C8.74424 8.44108 8.75816 8.43648 8.77874 8.43262L8.41016 6.46687Z" fill="#676879" mask="url(#path-1-inside-1_11150_16645)"/>
</svg>
