<svg width="20" height="20" viewBox="0 0 20 20" fill="none" xmlns="http://www.w3.org/2000/svg">
<path fill-rule="evenodd" clip-rule="evenodd" d="M3.52441 12.7549C3.52441 12.3407 3.18863 12.0049 2.77441 12.0049C2.3602 12.0049 2.02441 12.3407 2.02441 12.7549L2.02441 17.2015C2.02441 17.6157 2.3602 17.9515 2.77441 17.9515L7.22106 17.9515C7.63528 17.9515 7.97106 17.6157 7.97106 17.2015C7.97106 16.7873 7.63528 16.4515 7.22106 16.4515L4.58492 16.4515L8.86306 12.1734C9.15595 11.8805 9.15595 11.4056 8.86306 11.1127C8.57016 10.8198 8.09529 10.8198 7.8024 11.1127L3.52441 15.3907L3.52441 12.7549ZM11.22 8.83892C10.9271 8.54603 10.9271 8.07116 11.22 7.77826L15.4981 3.50013L12.8619 3.50013C12.4477 3.50013 12.1119 3.16434 12.1119 2.75013C12.1119 2.33591 12.4477 2.00013 12.8619 2.00013L17.3086 2.00013C17.7228 2.00013 18.0586 2.33592 18.0586 2.75013L18.0586 7.19678C18.0586 7.61099 17.7228 7.94678 17.3086 7.94678C16.8944 7.94678 16.5586 7.61099 16.5586 7.19678L16.5586 4.56094L12.2806 8.83892C11.9877 9.13182 11.5128 9.13182 11.22 8.83892ZM4.58536 3.5L8.86334 7.77798C9.15623 8.07087 9.15623 8.54575 8.86334 8.83864C8.57044 9.13153 8.09557 9.13153 7.80268 8.83864L3.52503 4.561L3.52503 7.19665C3.52503 7.61086 3.18925 7.94665 2.77503 7.94665C2.36082 7.94665 2.02503 7.61086 2.02503 7.19665L2.02503 2.7725C2.01908 2.57313 2.0922 2.37184 2.24437 2.21967C2.3542 2.10984 2.48963 2.04119 2.63145 2.01373C2.67883 2.00455 2.72693 1.99998 2.77503 2L4.58536 3.5ZM4.58536 3.5L2.77582 2L7.22168 2C7.63589 2 7.97168 2.33579 7.97168 2.75C7.97168 3.16421 7.63589 3.5 7.22168 3.5L4.58536 3.5ZM11.2197 11.113C11.5126 10.8201 11.9874 10.8201 12.2803 11.113L16.5585 15.3912L16.5585 12.755C16.5585 12.3408 16.8943 12.005 17.3085 12.005C17.7227 12.005 18.0585 12.3408 18.0585 12.755L18.0585 17.2017C18.0585 17.6159 17.7227 17.9517 17.3085 17.9517L17.3083 17.9517L12.8618 17.9517C12.4476 17.9517 12.1118 17.6159 12.1118 17.2017C12.1118 16.7874 12.4476 16.4517 12.8618 16.4517L15.4977 16.4517L11.2197 12.1737C10.9268 11.8808 10.9268 11.4059 11.2197 11.113Z" fill="#676879"/>
</svg>
