<svg width="20" height="20" viewBox="0 0 20 20" fill="none" xmlns="http://www.w3.org/2000/svg">
<path fill-rule="evenodd" clip-rule="evenodd" d="M9.68968 3.75655C9.18674 3.72178 8.68392 3.82593 8.23617 4.05762C7.78842 4.28931 7.41298 4.63962 7.15088 5.07027C6.88877 5.50092 6.7501 5.99533 6.75 6.49948C6.74992 6.91369 6.41407 7.24941 5.99986 7.24933C5.58564 7.24925 5.24992 6.9134 5.25 6.49919C5.25015 5.72006 5.46447 4.95597 5.86954 4.29042C6.27461 3.62487 6.85484 3.08347 7.54681 2.72541C8.23878 2.36734 9.01587 2.20638 9.79314 2.26012C10.5704 2.31386 11.318 2.58024 11.9541 3.03013C12.5902 3.48002 13.0904 4.09611 13.4 4.81107C13.7096 5.52604 13.8167 6.31236 13.7097 7.08409C13.6026 7.85582 13.2854 8.58327 12.7929 9.18693C12.3003 9.79059 11.6512 10.2472 10.9167 10.5069C10.7216 10.5759 10.5528 10.7037 10.4334 10.8726C10.314 11.0416 10.2499 11.2434 10.25 11.4503V12.6243C10.25 13.0385 9.91421 13.3743 9.5 13.3743C9.08579 13.3743 8.75 13.0385 8.75 12.6243V11.4511C8.74981 10.934 8.90995 10.4292 9.20838 10.0069C9.50688 9.58453 9.92904 9.26513 10.4167 9.09273C10.892 8.92468 11.3119 8.62921 11.6307 8.2386C11.9494 7.848 12.1546 7.3773 12.2239 6.87794C12.2932 6.37858 12.2239 5.86979 12.0235 5.40717C11.8232 4.94454 11.4995 4.54589 11.0879 4.25479C10.6763 3.96368 10.1926 3.79132 9.68968 3.75655ZM9.5 15.3746C9.26514 15.3746 9.03555 15.4442 8.84026 15.5747C8.64498 15.7052 8.49277 15.8906 8.40289 16.1076C8.31301 16.3246 8.2895 16.5634 8.33532 16.7937C8.38114 17.0241 8.49423 17.2357 8.66031 17.4018C8.82639 17.5678 9.03798 17.6809 9.26833 17.7268C9.49868 17.7726 9.73745 17.7491 9.95444 17.6592C10.1714 17.5693 10.3569 17.4171 10.4874 17.2218C10.6179 17.0265 10.6875 16.7969 10.6875 16.5621C10.6875 16.2471 10.5624 15.9451 10.3397 15.7224C10.117 15.4997 9.81494 15.3746 9.5 15.3746Z" fill="#676879"/>
</svg>
