<svg width="20" height="20" viewBox="0 0 20 20" fill="none" xmlns="http://www.w3.org/2000/svg">
<path fill-rule="evenodd" clip-rule="evenodd" d="M5.4945 14.6106C5.21017 14.9118 5.22386 15.3865 5.52507 15.6708C5.82628 15.9551 6.30096 15.9414 6.58529 15.6402L7.55161 14.6165C8.33448 14.8828 9.1487 15.0351 9.97049 15.023C12.868 15.0658 15.6721 13.0643 17.3405 11.2281L17.3427 11.2257L17.3623 11.204L17.3623 11.204C17.4409 11.1171 17.5695 10.9749 17.6759 10.8166C17.7887 10.6487 17.9414 10.3712 17.9414 10.023C17.9414 9.67476 17.7887 9.39726 17.6759 9.22935C17.5695 9.07103 17.4409 8.92884 17.3623 8.84193L17.3427 8.82027L17.3427 8.82026L17.3403 8.81759C16.6909 8.10355 15.882 7.37807 14.9721 6.75541L16.2615 5.38946C16.5458 5.08825 16.5322 4.61357 16.231 4.32924C15.9297 4.04491 15.4551 4.0586 15.1707 4.35981L13.6515 5.96921C12.4945 5.38157 11.2365 5.00614 9.97049 5.02487C7.11928 4.98269 4.30864 6.93968 2.60229 8.8179L2.60228 8.8179L2.60015 8.82027C2.41883 9.02157 2.05859 9.45823 2.05859 10.023C2.05859 10.5877 2.41883 11.0244 2.60015 11.2257L2.60014 11.2257L2.60213 11.2279C3.49368 12.2099 4.71006 13.239 6.09199 13.9776L5.4945 14.6106ZM8.7116 13.3877C9.12834 13.4817 9.54584 13.5299 9.95787 13.523C9.96629 13.5229 9.9747 13.5229 9.98311 13.523C12.2434 13.561 14.669 11.9373 16.2294 10.2205L16.2454 10.2028L16.2454 10.2027L16.2455 10.2026C16.2847 10.1591 16.3174 10.1228 16.3498 10.0846C16.3692 10.0618 16.3857 10.0414 16.3998 10.023C16.3857 10.0046 16.3692 9.98418 16.3498 9.96133C16.3174 9.92317 16.2847 9.88683 16.2455 9.84335L16.2454 9.84327L16.2454 9.84322L16.2294 9.82555C15.5785 9.11006 14.7875 8.42214 13.9283 7.8612L8.7116 13.3877ZM12.5698 7.11515C11.7158 6.73463 10.8338 6.51051 9.98314 6.52486C9.97471 6.525 9.96628 6.525 9.95784 6.52486C7.73795 6.48741 5.30526 8.0739 3.71366 9.8253C3.64791 9.89841 3.60189 9.96074 3.57471 10.01L3.56783 10.023L3.57471 10.036C3.60191 10.0853 3.64796 10.1476 3.71376 10.2208C4.63358 11.2336 5.85484 12.2141 7.16586 12.84L8.22825 11.7145C8.21386 11.7021 8.19983 11.6891 8.1862 11.6755C7.84446 11.3337 7.61175 10.8982 7.5175 10.4241C7.42324 9.95 7.47168 9.45862 7.65669 9.01206C7.84169 8.5655 8.15495 8.18383 8.55686 7.9153C8.95872 7.64681 9.43115 7.50349 9.91444 7.50345L10.2761 9.07526C10.1616 9.02782 10.0388 9.00342 9.91484 9.00345H9.91464C9.72794 9.00345 9.54542 9.05881 9.39018 9.16254C9.23493 9.26626 9.11393 9.41369 9.04247 9.58618C8.97101 9.75867 8.9523 9.94847 8.9887 10.1316C9.02511 10.3147 9.115 10.4829 9.247 10.615C9.25029 10.6183 9.25355 10.6216 9.25676 10.6249L10.553 9.25173C10.4718 9.17725 10.3781 9.11749 10.2761 9.07526L9.91464 7.50345C10.2356 7.50339 10.5535 7.56658 10.8501 7.6894C11.1208 7.8015 11.3689 7.96127 11.5827 8.1609L12.5698 7.11515Z" fill="#676879"/>
</svg>
