<svg width="20" height="20" viewBox="0 0 20 20" fill="none" xmlns="http://www.w3.org/2000/svg">
<path fill-rule="evenodd" clip-rule="evenodd" d="M7.33145 3.75H6.48257C6.06836 3.75 5.73257 3.41421 5.73257 3C5.73257 2.58579 6.06836 2.25 6.48257 2.25H8.08145H12.3452H13.9441C14.3583 2.25 14.6941 2.58579 14.6941 3C14.6941 3.41421 14.3583 3.75 13.9441 3.75H13.0952V9.13621L16.7647 13.8066C17.0371 14.1531 17.2065 14.5692 17.2535 15.0074C17.3006 15.4456 17.2234 15.8882 17.0309 16.2846C16.8383 16.681 16.5381 17.0153 16.1645 17.2491C15.791 17.483 15.3592 17.6071 14.9185 17.6071H14.9184H5.50829H5.50815C5.06744 17.6071 4.63564 17.483 4.2621 17.2491C3.88856 17.0153 3.58835 16.681 3.39577 16.2846C3.2032 15.8882 3.12604 15.4456 3.1731 15.0074C3.22016 14.5692 3.38956 14.1531 3.66192 13.8066L7.33145 9.13621V3.75ZM8.83145 3.75L6.41704 12.7279L4.84129 14.7335L4.84118 14.7336C4.74275 14.8588 4.68153 15.0092 4.66452 15.1676C4.64751 15.326 4.6754 15.4859 4.745 15.6292C4.81459 15.7724 4.92309 15.8932 5.05809 15.9778C5.19305 16.0623 5.34906 16.1071 5.50829 16.1071L6.41704 12.7279L6.41719 12.7278L5.50842 16.1071H14.9182H14.9184C15.0776 16.1071 15.2336 16.0623 15.3685 15.9778C15.5035 15.8932 15.612 15.7724 15.6816 15.6292C15.7512 15.4859 15.7791 15.326 15.7621 15.1676C15.7451 15.0092 15.6839 14.8588 15.5855 14.7336L15.5853 14.7335L11.7554 9.85896C11.6516 9.72683 11.5952 9.56365 11.5952 9.3956V3.75H8.83145ZM6.41719 12.7278L8.83145 3.75V9.3956C8.83145 9.56365 8.77501 9.72683 8.67119 9.85896L6.41719 12.7278Z" fill="#676879"/>
</svg>
