<svg width="20" height="20" viewBox="0 0 20 20" fill="none" xmlns="http://www.w3.org/2000/svg">
<path fill-rule="evenodd" clip-rule="evenodd" d="M3.56854 2C3.55421 2 3.53988 2.00041 3.52558 2.00123C3.0642 2.0277 2.65868 2.26237 2.38521 2.60877C2.11762 2.94773 1.98781 3.37517 2.0009 3.79876V16.2014C1.98801 16.6249 2.11789 17.0522 2.3854 17.391C2.65872 17.7373 3.06391 17.9719 3.52498 17.9987C3.53948 17.9996 3.55401 18 3.56854 18H10.9309C10.9452 18 10.9595 17.9996 10.9738 17.9988C11.4351 17.9723 11.8407 17.7378 12.1142 17.3915C12.382 17.0526 12.512 16.6251 12.4991 16.2015V14.1071C12.4991 13.6929 12.1633 13.3571 11.7491 13.3571C11.3349 13.3571 10.9991 13.6929 10.9991 14.1071V16.2143C10.9991 16.2241 10.9993 16.2339 10.9997 16.2437C11.0034 16.3387 10.9727 16.4168 10.9372 16.4616C10.9206 16.4827 10.906 16.4929 10.8979 16.4973C10.8955 16.4986 10.8936 16.4994 10.8921 16.5H3.60781C3.60634 16.4994 3.60442 16.4986 3.60208 16.4973C3.594 16.4929 3.57941 16.4827 3.56274 16.4616C3.52731 16.4167 3.49659 16.3387 3.50032 16.2437C3.50071 16.2339 3.5009 16.2241 3.5009 16.2143V3.78571C3.5009 3.77576 3.5007 3.76581 3.50031 3.75586C3.49652 3.66092 3.5272 3.583 3.56255 3.53822C3.57919 3.51714 3.59373 3.50703 3.60173 3.50267C3.60404 3.50142 3.60593 3.50057 3.60737 3.5H10.8921C10.8936 3.50058 10.8955 3.50144 10.8979 3.50273C10.906 3.50712 10.9206 3.51727 10.9372 3.53838C10.9727 3.58324 11.0034 3.66125 10.9997 3.75633C10.9993 3.76612 10.9991 3.77592 10.9991 3.78571V5.89286C10.9991 6.30707 11.3349 6.64286 11.7491 6.64286C12.1633 6.64286 12.4991 6.30707 12.4991 5.89286V3.79855C12.512 3.37488 12.382 2.94743 12.1142 2.60852C11.8407 2.26223 11.4351 2.0277 10.9738 2.00123C10.9595 2.00041 10.9452 2 10.9309 2H3.56854ZM14.3365 7.06967C14.6294 6.77678 15.1043 6.77678 15.3972 7.06967L17.8303 9.50284C17.9022 9.57475 17.9565 9.65762 17.9931 9.74608C18.0298 9.83452 18.05 9.93148 18.05 10.0332C18.05 10.2319 17.9727 10.4125 17.8466 10.5467C17.8406 10.5531 17.8346 10.5593 17.8285 10.5654L15.3972 12.9967C15.1043 13.2896 14.6294 13.2896 14.3365 12.9967C14.0436 12.7038 14.0436 12.2289 14.3365 11.936L15.4893 10.7832H7.08068C6.66647 10.7832 6.33068 10.4474 6.33068 10.0332C6.33068 9.61896 6.66647 9.28317 7.08068 9.28317H15.4893L14.3365 8.13033C14.0436 7.83744 14.0436 7.36256 14.3365 7.06967Z" fill="#676879"/>
</svg>
