<svg width="20" height="20" viewBox="0 0 20 20" fill="none" xmlns="http://www.w3.org/2000/svg">
<path fill-rule="evenodd" clip-rule="evenodd" d="M6.0001 1.82141C6.41432 1.82141 6.7501 2.1572 6.7501 2.57141V4.10713H13.2501V2.57141C13.2501 2.1572 13.5859 1.82141 14.0001 1.82141C14.4143 1.82141 14.7501 2.1572 14.7501 2.57141V4.10713H16.2858C16.7878 4.10713 17.2693 4.30655 17.6243 4.66153C17.9792 5.01651 18.1787 5.49797 18.1787 5.99998V16.2857C18.1787 16.7877 17.9792 17.2692 17.6243 17.6241C17.2693 17.9791 16.7878 18.1786 16.2858 18.1786H3.71439C3.21237 18.1786 2.73092 17.9791 2.37594 17.6241C2.02096 17.2692 1.82153 16.7877 1.82153 16.2857V5.99998C1.82153 5.49797 2.02096 5.01651 2.37594 4.66153C2.73092 4.30655 3.21237 4.10713 3.71439 4.10713C3.76325 4.10713 3.81101 4.1118 3.85727 4.12072C3.90351 4.1118 3.95126 4.10713 4.00011 4.10713H5.2501V2.57141C5.2501 2.1572 5.58589 1.82141 6.0001 1.82141ZM5.2501 7.14284V5.60713H4.00011C3.95125 5.60713 3.90348 5.60246 3.85723 5.59354C3.81099 5.60246 3.76324 5.60713 3.71439 5.60713C3.6102 5.60713 3.51027 5.64852 3.4366 5.72219C3.36292 5.79587 3.32153 5.89579 3.32153 5.99998V16.2857C3.32153 16.3899 3.36292 16.4898 3.4366 16.5635C3.51027 16.6372 3.6102 16.6786 3.71439 16.6786H16.2858C16.39 16.6786 16.4899 16.6372 16.5636 16.5635C16.6373 16.4898 16.6787 16.3899 16.6787 16.2857V5.99998C16.6787 5.89579 16.6373 5.79587 16.5636 5.72219C16.4899 5.64852 16.39 5.60713 16.2858 5.60713H14.7501V7.14284C14.7501 7.55705 14.4143 7.89284 14.0001 7.89284C13.5859 7.89284 13.2501 7.55705 13.2501 7.14284V5.60713H6.7501V7.14284C6.7501 7.55705 6.41432 7.89284 6.0001 7.89284C5.58589 7.89284 5.2501 7.55705 5.2501 7.14284ZM13.4217 9.92243C13.6944 9.6107 13.6629 9.13688 13.3511 8.86412C13.0394 8.59136 12.5656 8.62295 12.2928 8.93468L8.75082 12.9827L7.02153 11.6857C6.69016 11.4372 6.22006 11.5043 5.97153 11.8357C5.72301 12.1671 5.79016 12.6372 6.12153 12.8857L8.40725 14.6C8.7211 14.8354 9.16334 14.7891 9.42168 14.4939L13.4217 9.92243Z" fill="#676879"/>
</svg>
