<svg width="20" height="20" viewBox="0 0 20 20" fill="none" xmlns="http://www.w3.org/2000/svg">
<path fill-rule="evenodd" clip-rule="evenodd" d="M3.66649 3H14.3461C14.7681 3.00122 15.1821 3.15768 15.4953 3.4498C15.8103 3.74354 15.9986 4.15312 16 4.59258L16 4.59507L16 9.92688C16 10.3411 15.6642 10.6769 15.25 10.6769C14.8358 10.6769 14.5 10.3411 14.5 9.92688V8.07327H3.50586V14.2135C3.50586 14.2135 3.50902 14.2193 3.51512 14.225C3.52971 14.2386 3.56002 14.2545 3.60165 14.2545H10.1946C10.6088 14.2545 10.9446 14.5903 10.9446 15.0045C10.9446 15.4187 10.6088 15.7545 10.1946 15.7545H3.60165C3.19464 15.7545 2.79469 15.6042 2.49206 15.3219C2.18765 15.038 2.00586 14.6413 2.00586 14.2157V4.5968C2.00732 4.15622 2.19606 3.74556 2.51187 3.45103C2.82594 3.15812 3.24108 3.00122 3.66434 3L3.66649 3ZM3.50586 6.57327H14.5V4.59715C14.4999 4.58857 14.4965 4.56932 14.4723 4.54677C14.4461 4.52232 14.4002 4.50034 14.3424 4.5H3.66794C3.60896 4.50035 3.56199 4.52277 3.53493 4.548C3.5099 4.57134 3.506 4.59165 3.50586 4.60131V6.57327ZM15.7116 12.75C15.7116 12.3358 15.3758 12 14.9616 12C14.5473 12 14.2116 12.3358 14.2116 12.75V14.2115H12.75C12.3358 14.2115 12 14.5473 12 14.9615C12 15.3757 12.3358 15.7115 12.75 15.7115H14.2116V17.173C14.2116 17.5872 14.5473 17.923 14.9616 17.923C15.3758 17.923 15.7116 17.5872 15.7116 17.173V15.7115H17.173C17.5872 15.7115 17.923 15.3757 17.923 14.9615C17.923 14.5473 17.5872 14.2115 17.173 14.2115H15.7116V12.75Z" fill="#676879"/>
</svg>
