<svg width="20" height="20" viewBox="0 0 20 20" fill="none" xmlns="http://www.w3.org/2000/svg">
<path fill-rule="evenodd" clip-rule="evenodd" d="M5.84238 3.44995C5.73258 3.44995 5.63079 3.4927 5.5585 3.56328C5.48682 3.63327 5.44995 3.72431 5.44995 3.81534V16.0846C5.44995 16.1756 5.48682 16.2666 5.5585 16.3366C5.63079 16.4072 5.73258 16.45 5.84238 16.45H14.1242C14.234 16.45 14.3358 16.4072 14.4081 16.3366C14.4797 16.2666 14.5166 16.1756 14.5166 16.0846V5.95035C14.5166 5.95029 14.5166 5.9504 14.5166 5.95035C14.5166 5.8595 14.4798 5.76851 14.4083 5.69862M14.4083 5.69862L12.2211 3.5632C12.1489 3.49272 12.0473 3.45001 11.9376 3.44995C11.9375 3.44995 11.9376 3.44995 11.9376 3.44995H5.84238M14.1242 17.95C14.6204 17.95 15.0997 17.7577 15.4559 17.4099C15.8128 17.0615 16.0166 16.5852 16.0166 16.0846V5.95018C16.0165 5.44993 15.8128 4.97374 15.4564 4.6255L13.2688 2.48974C12.9128 2.14233 12.4336 1.95005 11.9377 1.94995H5.84238C5.34619 1.94995 4.86682 2.14223 4.51062 2.49C4.15381 2.83836 3.94995 3.31473 3.94995 3.81534V16.0846C3.94995 16.5852 4.15381 17.0615 4.51062 17.4099C4.86682 17.7577 5.34619 17.95 5.84238 17.95H14.1242Z" fill="#676879"/>
</svg>
