<svg width="20" height="20" viewBox="0 0 20 20" fill="none" xmlns="http://www.w3.org/2000/svg">
<path fill-rule="evenodd" clip-rule="evenodd" d="M8.13572 4.26517C8.63019 3.77071 9.30083 3.49292 10.0001 3.49292C10.6994 3.49292 11.37 3.77071 11.8645 4.26517C12.359 4.75964 12.6368 5.43028 12.6368 6.12956V7.79858H7.36346V6.12956C7.36346 5.43028 7.64125 4.75964 8.13572 4.26517ZM6.60936 9.29858C6.61073 9.29859 6.6121 9.29859 6.61346 9.29859C6.61483 9.29859 6.6162 9.29859 6.61756 9.29858H13.3827C13.384 9.29859 13.3854 9.29859 13.3868 9.29859C13.3881 9.29859 13.3895 9.29859 13.3909 9.29858H14.572V16.5071H5.42822V9.29858H6.60936ZM5.86346 7.79858V6.12956C5.86346 5.03246 6.29929 3.98029 7.07506 3.20451C7.85083 2.42874 8.903 1.99292 10.0001 1.99292C11.0972 1.99292 12.1494 2.42874 12.9252 3.20451C13.7009 3.98029 14.1368 5.03246 14.1368 6.12956V7.79858H15.322C15.7362 7.79858 16.072 8.13437 16.072 8.54858V17.2571C16.072 17.6713 15.7362 18.0071 15.322 18.0071H4.67822C4.26401 18.0071 3.92822 17.6713 3.92822 17.2571V8.54858C3.92822 8.13437 4.26401 7.79858 4.67822 7.79858H5.86346Z" fill="#676879"/>
</svg>
