<svg width="20" height="20" viewBox="0 0 20 20" fill="none" xmlns="http://www.w3.org/2000/svg">
<path fill-rule="evenodd" clip-rule="evenodd" d="M8.74156 3.30711C9.02181 3.4232 9.20455 3.69668 9.20455 4.00002V6.52275H9.54546C12.594 6.52275 14.4466 8.07875 15.6387 10.016C16.5643 11.52 17.124 13.3156 17.5773 14.7702C17.6877 15.1244 17.7918 15.4583 17.8933 15.7629C17.9997 16.0818 17.8807 16.4326 17.6023 16.6211C17.3239 16.8096 16.9541 16.7898 16.6974 16.5726C16.2203 16.169 15.805 15.8084 15.4334 15.4857C14.5188 14.6915 13.8684 14.1267 13.2113 13.7146C12.3664 13.1848 11.5347 12.9318 10.0909 12.9318H9.20455V15.4546C9.20455 15.7644 9.014 16.0424 8.72499 16.1541C8.43599 16.2658 8.10802 16.1883 7.89959 15.9591L2.44505 9.95907C2.17575 9.66284 2.18658 9.20732 2.46967 8.92424L7.92422 3.46969C8.13871 3.25519 8.4613 3.19103 8.74156 3.30711ZM4.03601 9.47922L7.70455 13.5146V12.1818C7.70455 11.7676 8.04033 11.4318 8.45455 11.4318H10.0909C11.765 11.4318 12.8843 11.739 14.0082 12.4438C14.5309 12.7716 15.0614 13.1927 15.6536 13.6945C15.3125 12.696 14.9117 11.6967 14.3613 10.8022C13.3716 9.19402 11.9515 8.02275 9.54546 8.02275H8.45455C8.04033 8.02275 7.70455 7.68696 7.70455 7.27275V5.81068L4.03601 9.47922Z" fill="#676879"/>
</svg>
