<svg width="20" height="20" viewBox="0 0 20 20" fill="none" xmlns="http://www.w3.org/2000/svg">
<path fill-rule="evenodd" clip-rule="evenodd" d="M4.64896 6.91467C6.26045 4.18516 9.67945 2.99366 12.6868 4.25088C15.9729 5.62462 17.5229 9.40173 16.149 12.6872C14.7752 15.9728 10.9975 17.5228 7.7114 16.149C5.76819 15.3366 4.4318 13.6846 3.94814 11.7874C3.84582 11.3861 3.43749 11.1436 3.03611 11.246C2.63474 11.3483 2.39231 11.7566 2.49464 12.158C3.08965 14.492 4.73671 16.5312 7.13284 17.5329C11.1831 19.2262 15.8394 17.3158 17.5329 13.2659C19.2264 9.21594 17.3157 4.56019 13.2654 2.86695C9.78854 1.41346 5.86517 2.61534 3.75267 5.54656L3.75 4.45758C3.74898 4.04337 3.41237 3.70841 2.99816 3.70942C2.58395 3.71044 2.24899 4.04705 2.25 4.46126L2.25788 7.67054C2.2589 8.08476 2.59551 8.41972 3.00972 8.4187L6.2194 8.41082C6.63362 8.40981 6.96858 8.0732 6.96756 7.65898C6.96655 7.24477 6.62994 6.90981 6.21572 6.91083L4.64896 6.91467Z" fill="#676879"/>
</svg>
