<svg width="20" height="20" viewBox="0 0 20 20" fill="none" xmlns="http://www.w3.org/2000/svg">
<path fill-rule="evenodd" clip-rule="evenodd" d="M10.4114 17.9216C10.1387 18.0263 9.83594 18.0263 9.56321 17.9216L8.80471 17.6327C6.88623 16.8983 5.23825 15.6097 4.07729 13.9362C2.91632 12.2627 2.2967 10.2825 2.29982 8.25584V5.32926C2.29982 5.02538 2.56878 4.7929 2.87192 4.81426C4.13696 4.9034 5.40854 4.70041 6.58415 4.21811C7.72219 3.75123 8.7348 3.03718 9.54812 2.13277C9.77572 1.87968 10.1876 1.88825 10.4072 2.1483C11.9378 3.9607 14.2426 4.85771 17.1405 4.77901C17.4296 4.77116 17.6748 4.99903 17.6748 5.28822V8.25584C17.6779 10.2825 17.0583 12.2627 15.8973 13.9362C14.7364 15.6097 13.0884 16.8983 11.1699 17.6327L10.4114 17.9216ZM9.34094 16.2318L9.33968 16.2313C7.70085 15.6037 6.29698 14.5043 5.30976 13.0812C4.3225 11.6581 3.79717 9.97678 3.79982 8.25815V8.25584V6.32854C4.94762 6.28776 6.08384 6.04469 7.15347 5.60587C8.1867 5.18199 9.13368 4.58534 9.9544 3.84559C11.5851 5.36959 13.7291 6.15704 16.1748 6.26962L16.1748 8.25584L16.1748 8.25815C16.1774 9.97678 15.6521 11.6581 14.6649 13.0812C13.6777 14.5042 12.2739 15.6036 10.6351 16.2312L10.6337 16.2318L9.98731 16.478L9.34094 16.2318ZM12.9409 9.21259C13.1964 8.88653 13.1392 8.41512 12.8131 8.15966C12.487 7.9042 12.0156 7.96142 11.7602 8.28748L9.83812 10.7407L8.9161 10.126C8.57146 9.89623 8.10581 9.98936 7.87604 10.334C7.64628 10.6787 7.73941 11.1443 8.08405 11.3741L9.58405 12.3741C9.91018 12.5915 10.3487 12.5211 10.5905 12.2126L12.9409 9.21259Z" fill="#676879"/>
</svg>
