<svg width="20" height="20" viewBox="0 0 20 20" fill="none" xmlns="http://www.w3.org/2000/svg">
<path fill-rule="evenodd" clip-rule="evenodd" d="M3.52283 2.21527C3.81593 2.09386 4.13007 2.03137 4.44733 2.03137C4.76458 2.03137 5.07872 2.09386 5.37182 2.21527C5.66493 2.33667 5.93125 2.51462 6.15558 2.73895C6.37991 2.96328 6.55786 3.2296 6.67926 3.5227C6.70304 3.58011 6.72456 3.63831 6.74378 3.69719H17.2187C17.6329 3.69719 17.9687 4.03298 17.9687 4.44719C17.9687 4.86141 17.6329 5.19719 17.2187 5.19719H6.74379C6.72456 5.25608 6.70304 5.31429 6.67926 5.3717C6.55786 5.6648 6.37991 5.93112 6.15558 6.15545C5.93125 6.37978 5.66493 6.55773 5.37182 6.67914C5.07872 6.80055 4.76458 6.86303 4.44733 6.86303C4.13007 6.86303 3.81593 6.80055 3.52283 6.67914C3.22972 6.55773 2.96341 6.37978 2.73907 6.15545C2.51474 5.93112 2.3368 5.6648 2.21539 5.3717C2.09398 5.0786 2.03149 4.76445 2.03149 4.4472C2.03149 4.12995 2.09398 3.81581 2.21539 3.5227C2.3368 3.2296 2.51474 2.96328 2.73907 2.73895C2.96341 2.51462 3.22972 2.33667 3.52283 2.21527ZM4.44733 3.53137C4.32706 3.53137 4.20797 3.55506 4.09685 3.60109C3.98574 3.64711 3.88478 3.71457 3.79973 3.79961C3.71469 3.88466 3.64723 3.98562 3.60121 4.09673C3.55518 4.20784 3.53149 4.32693 3.53149 4.4472C3.53149 4.56747 3.55518 4.68656 3.60121 4.79768C3.64723 4.90879 3.71469 5.00975 3.79973 5.09479C3.88478 5.17984 3.98574 5.2473 4.09685 5.29332C4.20797 5.33935 4.32706 5.36303 4.44733 5.36303C4.56759 5.36303 4.68669 5.33935 4.7978 5.29332C4.90891 5.2473 5.00987 5.17984 5.09492 5.09479C5.17996 5.00975 5.24742 4.90879 5.29344 4.79768C5.33947 4.68656 5.36316 4.56747 5.36316 4.4472C5.36316 4.32693 5.33947 4.20784 5.29344 4.09673C5.24742 3.98562 5.17996 3.88466 5.09492 3.79961C5.00987 3.71457 4.90891 3.64711 4.7978 3.60109C4.68669 3.55506 4.56759 3.53137 4.44733 3.53137ZM10.0001 7.58414C9.68284 7.58414 9.3687 7.64663 9.07559 7.76803C8.78249 7.88944 8.51617 8.06739 8.29184 8.29172C8.06751 8.51605 7.88956 8.78237 7.76815 9.07547C7.74438 9.13288 7.72286 9.19109 7.70363 9.24998H2.78149C2.36728 9.24998 2.03149 9.58576 2.03149 9.99998C2.03149 10.4142 2.36728 10.75 2.78149 10.75H7.70363C7.72286 10.8089 7.74438 10.8671 7.76815 10.9245C7.88956 11.2176 8.06751 11.4839 8.29184 11.7082C8.51617 11.9326 8.78249 12.1105 9.07559 12.2319C9.3687 12.3533 9.68284 12.4158 10.0001 12.4158C10.3173 12.4158 10.6315 12.3533 10.9246 12.2319C11.2177 12.1105 11.484 11.9326 11.7083 11.7082C11.9327 11.4839 12.1106 11.2176 12.232 10.9245C12.2558 10.8671 12.2773 10.8089 12.2966 10.75H17.2187C17.6329 10.75 17.9687 10.4142 17.9687 9.99998C17.9687 9.58576 17.6329 9.24998 17.2187 9.24998H12.2966C12.2773 9.19109 12.2558 9.13288 12.232 9.07547C12.1106 8.78237 11.9327 8.51605 11.7083 8.29172C11.484 8.06739 11.2177 7.88944 10.9246 7.76803C10.6315 7.64663 10.3173 7.58414 10.0001 7.58414ZM10.9159 9.99871C10.9158 9.87887 10.8921 9.76022 10.8462 9.6495C10.8002 9.53838 10.7327 9.43742 10.6477 9.35238C10.5626 9.26734 10.4617 9.19988 10.3506 9.15385C10.2395 9.10783 10.1204 9.08414 10.0001 9.08414C9.87982 9.08414 9.76073 9.10783 9.64962 9.15385C9.5385 9.19988 9.43754 9.26734 9.3525 9.35238C9.26746 9.43742 9.2 9.53838 9.15397 9.6495C9.10819 9.76003 9.08451 9.87845 9.08426 9.99808L9.08426 9.99998L9.08426 10.0019C9.08451 10.1215 9.10819 10.2399 9.15397 10.3504C9.2 10.4616 9.26746 10.5625 9.3525 10.6476C9.43754 10.7326 9.5385 10.8001 9.64962 10.8461C9.76073 10.8921 9.87982 10.9158 10.0001 10.9158C10.1204 10.9158 10.2395 10.8921 10.3506 10.8461C10.4617 10.8001 10.5626 10.7326 10.6477 10.6476C10.7327 10.5625 10.8002 10.4616 10.8462 10.3504C10.8922 10.2393 10.9159 10.1202 10.9159 9.99997L10.9159 9.99871ZM13.8446 13.8445C14.2977 13.3914 14.9122 13.1369 15.5529 13.1369C16.1936 13.1369 16.8081 13.3914 17.2611 13.8445C17.7142 14.2976 17.9687 14.912 17.9687 15.5528C17.9687 16.1935 17.7142 16.8079 17.2611 17.261C16.8081 17.7141 16.1936 17.9686 15.5529 17.9686C14.9122 17.9686 14.2977 17.7141 13.8446 17.261C13.5734 16.9898 13.3733 16.6607 13.2564 16.3027H2.78149C2.36728 16.3027 2.03149 15.967 2.03149 15.5527C2.03149 15.1385 2.36728 14.8027 2.78149 14.8027H13.2564C13.3733 14.4448 13.5734 14.1157 13.8446 13.8445ZM15.5529 14.6369C15.31 14.6369 15.077 14.7334 14.9053 14.9052C14.7335 15.0769 14.637 15.3099 14.637 15.5528C14.637 15.7956 14.7335 16.0286 14.9053 16.2003C15.077 16.3721 15.31 16.4686 15.5529 16.4686C15.7958 16.4686 16.0287 16.3721 16.2005 16.2003C16.3722 16.0286 16.4687 15.7956 16.4687 15.5528C16.4687 15.3099 16.3722 15.0769 16.2005 14.9052C16.0287 14.7334 15.7958 14.6369 15.5529 14.6369Z" fill="#676879"/>
</svg>
