<svg width="20" height="20" viewBox="0 0 20 20" fill="none" xmlns="http://www.w3.org/2000/svg">
<path d="M7.07805 3.97993C7.2449 3.97993 7.39583 4.04821 7.50448 4.15839L9.42439 6.08073C9.65841 6.31505 9.65841 6.69495 9.42439 6.92926C9.19037 7.16358 8.81095 7.16358 8.57693 6.92926L7.67729 6.02848V15.4203C7.67729 15.7516 7.409 16.0203 7.07805 16.0203C6.74709 16.0203 6.4788 15.7516 6.4788 15.4203V6.02844L5.57912 6.92926C5.3451 7.16358 4.96568 7.16358 4.73167 6.92926C4.49765 6.69495 4.49765 6.31505 4.73167 6.08073L6.6543 4.15567C6.66596 4.14399 6.67806 4.13284 6.69055 4.12224C6.79502 4.03347 6.93029 3.97993 7.07805 3.97993Z" fill="#676879"/>
<path d="M12.9218 16.0199C13.0887 16.0199 13.2396 15.9517 13.3482 15.8415L15.2681 13.9191C15.5022 13.6848 15.5022 13.3049 15.2681 13.0706C15.0341 12.8363 14.6547 12.8363 14.4207 13.0706L13.521 13.9714V4.57962C13.521 4.24825 13.2527 3.97962 12.9218 3.97962C12.5908 3.97962 12.3226 4.24825 12.3226 4.57962V13.9714L11.4229 13.0706C11.1889 12.8363 10.8094 12.8363 10.5754 13.0706C10.3414 13.3049 10.3414 13.6848 10.5754 13.9191L12.498 15.8442C12.5097 15.8559 12.5218 15.867 12.5343 15.8776C12.6388 15.9664 12.774 16.0199 12.9218 16.0199Z" fill="#676879"/>
</svg>
