<svg width="20" height="20" viewBox="0 0 20 20" fill="none" xmlns="http://www.w3.org/2000/svg">
<path fill-rule="evenodd" clip-rule="evenodd" d="M5.44542 4.42905C5.73759 4.13544 5.73643 3.66057 5.44282 3.36839C5.1492 3.07622 4.67433 3.07739 4.38216 3.371L2.17374 5.59029C1.88157 5.8839 1.88273 6.35877 2.17634 6.65094L4.39591 8.85964C4.68952 9.15182 5.16439 9.15065 5.45657 8.85704C5.74874 8.56343 5.74758 8.08856 5.45396 7.79638L4.50297 6.85004H17.1999C17.6141 6.85004 17.9499 6.51425 17.9499 6.10004C17.9499 5.68583 17.6141 5.35004 17.1999 5.35004H4.52894L5.44542 4.42905ZM15.3708 14.5834L14.4543 15.5044C14.1621 15.798 14.1633 16.2728 14.4569 16.565C14.7505 16.8572 15.2254 16.856 15.5176 16.5624L17.726 14.3431C18.0182 14.0495 18.017 13.5746 17.7234 13.2825L15.5038 11.0738C15.2102 10.7816 14.7353 10.7828 14.4432 11.0764C14.151 11.37 14.1522 11.8449 14.4458 12.137L15.3968 13.0834L2.69995 13.0834C2.28574 13.0834 1.94995 13.4192 1.94995 13.8334C1.94995 14.2476 2.28574 14.5834 2.69995 14.5834L15.3708 14.5834Z" fill="#676879"/>
</svg>
