<svg width="20" height="20" viewBox="0 0 20 20" fill="none" xmlns="http://www.w3.org/2000/svg">
<path fill-rule="evenodd" clip-rule="evenodd" d="M9.94995 1.94995C7.82822 1.94995 5.79339 2.79281 4.2931 4.2931C2.79281 5.79339 1.94995 7.82822 1.94995 9.94995C1.94995 12.0717 2.79281 14.1065 4.2931 15.6068C5.79339 17.1071 7.82822 17.95 9.94995 17.95C12.0717 17.95 14.1065 17.1071 15.6068 15.6068C17.1071 14.1065 17.95 12.0717 17.95 9.94995C17.95 7.82822 17.1071 5.79339 15.6068 4.2931C14.1065 2.79281 12.0717 1.94995 9.94995 1.94995ZM5.35376 5.35376C6.57274 4.13477 8.22604 3.44995 9.94995 3.44995C11.6739 3.44995 13.3272 4.13477 14.5461 5.35376C15.7651 6.57274 16.45 8.22604 16.45 9.94995C16.45 11.6739 15.7651 13.3272 14.5461 14.5461C13.3272 15.7651 11.6739 16.45 9.94995 16.45C8.22604 16.45 6.57274 15.7651 5.35376 14.5461C4.13477 13.3272 3.44995 11.6739 3.44995 9.94995C3.44995 8.22604 4.13477 6.57274 5.35376 5.35376ZM11.1833 6.56662C11.1833 6.15241 10.8475 5.81662 10.4333 5.81662C10.0191 5.81662 9.68332 6.15241 9.68332 6.56662V10.4333C9.68332 10.8475 10.0191 11.1833 10.4333 11.1833H13.3333C13.7475 11.1833 14.0833 10.8475 14.0833 10.4333C14.0833 10.0191 13.7475 9.68329 13.3333 9.68329H11.1833V6.56662Z" fill="#676879"/>
</svg>
