<svg width="20" height="20" viewBox="0 0 20 20" fill="none" xmlns="http://www.w3.org/2000/svg">
<path fill-rule="evenodd" clip-rule="evenodd" d="M11.9508 4.34017C11.4578 3.84116 10.7911 3.5625 10.0979 3.5625C9.40465 3.5625 8.73794 3.84116 8.24494 4.34017C7.75163 4.83949 7.47289 5.51863 7.47289 6.22865V8.29376H15.0937C15.5079 8.29376 15.8437 8.62955 15.8437 9.04376V17.2188C15.8437 17.633 15.5079 17.9688 15.0937 17.9688H5.10205C4.68784 17.9688 4.35205 17.633 4.35205 17.2188V9.04376C4.35205 8.62955 4.68784 8.29376 5.10205 8.29376H5.97289V6.22865C5.97289 5.12663 6.40531 4.06794 7.17787 3.28596C7.95074 2.50367 9.00092 2.0625 10.0979 2.0625C11.1949 2.0625 12.245 2.50367 13.0179 3.28596C13.309 3.58062 13.3061 4.05549 13.0115 4.3466C12.7168 4.63771 12.242 4.63484 11.9508 4.34017ZM5.85205 16.4688V9.79376H14.3437V16.4688H5.85205Z" fill="#676879"/>
</svg>
