<svg width="20" height="20" viewBox="0 0 20 20" fill="none" xmlns="http://www.w3.org/2000/svg">
<path fill-rule="evenodd" clip-rule="evenodd" d="M10.4338 1.95002C11.5974 1.94803 12.7457 2.21622 13.7881 2.73346C14.8308 3.25089 15.7392 4.00341 16.4415 4.93173C17.1438 5.86005 17.621 6.9388 17.8354 8.08297C18.0497 9.22713 17.9954 10.4054 17.6768 11.5251C17.3581 12.6447 16.7838 13.675 15.9991 14.5348C15.2144 15.3946 14.2407 16.0604 13.1548 16.4798C12.0689 16.8992 10.9004 17.0606 9.74148 16.9514C8.72142 16.8553 7.73327 16.5518 6.8371 16.0613L4.29482 17.2723C3.23209 17.7786 2.12259 16.6693 2.62864 15.6065L3.83935 13.0637C3.26476 12.0145 2.94821 10.8411 2.91886 9.6412C2.8861 8.30176 3.21239 6.97795 3.86387 5.80716C4.51535 4.63637 5.46828 3.66125 6.62377 2.983C7.7789 2.30497 9.09439 1.94831 10.4338 1.95002ZM10.4338 1.95002C10.4342 1.95002 10.4346 1.95002 10.435 1.95002L10.434 2.70002L10.4326 1.95003C10.433 1.95002 10.4334 1.95002 10.4338 1.95002ZM13.1213 4.07713C12.2866 3.66295 11.3672 3.44828 10.4354 3.45002L10.4329 3.45002C9.36074 3.44848 8.30771 3.73388 7.38309 4.27662C6.45846 4.81935 5.69592 5.59964 5.17461 6.53651C4.65329 7.47338 4.3922 8.53269 4.41841 9.60452C4.44463 10.6763 4.7572 11.7216 5.3237 12.6319C5.45876 12.8489 5.47399 13.1198 5.3641 13.3506L4.28589 15.6151L6.5499 14.5366C6.78066 14.4267 7.05152 14.4418 7.26857 14.5768C8.05979 15.069 8.9545 15.3706 9.88219 15.458C10.8099 15.5454 11.7452 15.4162 12.6144 15.0805C13.4836 14.7448 14.263 14.2119 14.8912 13.5236C15.5193 12.8354 15.979 12.0107 16.2341 11.1145C16.4892 10.2182 16.5326 9.27505 16.361 8.35919C16.1894 7.44334 15.8075 6.57984 15.2453 5.83676C14.6831 5.09368 13.956 4.49131 13.1213 4.07713Z" fill="#676879"/>
</svg>
